<?xml version="1.0" standalone="no"?>
<!DOCTYPE svg PUBLIC "-//W3C//DTD SVG 20010904//EN"
 "http://www.w3.org/TR/2001/REC-SVG-20010904/DTD/svg10.dtd">
<svg version="1.0" xmlns="http://www.w3.org/2000/svg"
 width="300.000000pt" height="300.000000pt" viewBox="0 0 300.000000 300.000000"
 preserveAspectRatio="xMidYMid meet">
<metadata>
Created by potrace 1.10, written by Peter Selinger 2001-2011
</metadata>
<g transform="translate(0.000000,300.000000) scale(0.100000,-0.100000)"
fill="#000000" stroke="none">
<path d="M1234 1965 c-10 -8 -28 -15 -39 -15 -11 0 -33 -7 -49 -15 -15 -8 -38
-15 -51 -15 -12 0 -30 -8 -39 -19 -9 -10 -29 -21 -44 -24 -34 -7 -112 -67
-112 -86 0 -7 -7 -19 -16 -25 -28 -21 -46 -137 -31 -196 8 -29 42 -60 67 -60
39 0 120 -33 120 -49 0 -21 63 -79 95 -87 22 -5 64 -3 170 10 22 3 51 6 64 6
13 0 46 7 73 15 50 14 75 11 93 -11 12 -15 80 -34 146 -41 44 -4 48 -3 72 29
25 34 42 115 38 189 -2 48 -46 175 -59 172 -6 -2 -9 4 -6 12 4 8 2 15 -4 15
-6 0 -20 16 -32 34 -11 19 -38 45 -58 58 -20 12 -43 28 -50 35 -7 7 -20 13
-27 13 -8 0 -31 9 -52 20 -21 10 -78 24 -128 30 -49 6 -97 13 -106 15 -8 3
-24 -2 -35 -10z m36 -19 c-38 -14 -46 -13 -35 3 3 6 21 11 38 10 l32 -1 -35
-12z m163 -11 c33 -7 61 -16 63 -18 3 -2 -15 -12 -39 -21 -26 -10 -48 -26 -55
-40 -6 -13 -24 -32 -41 -42 -17 -10 -31 -22 -31 -27 0 -14 51 21 86 58 17 19
48 38 69 44 39 10 98 4 90 -9 -3 -4 5 -11 18 -14 12 -3 36 -17 52 -31 22 -19
24 -23 8 -15 -18 8 -23 8 -23 -2 -1 -7 -12 1 -26 17 -13 17 -22 23 -19 14 5
-14 0 -16 -42 -11 -26 3 -51 9 -54 14 -4 6 -9 -2 -13 -16 -3 -14 -10 -26 -15
-26 -21 0 -69 -52 -75 -82 -6 -32 -32 -68 -48 -68 -5 0 -7 10 -3 23 6 22 6 22
-13 -2 -11 -13 -32 -30 -48 -38 l-29 -13 35 5 c122 20 198 13 260 -22 16 -9
18 -12 5 -8 -42 14 -93 17 -99 6 -5 -7 8 -12 41 -13 26 -1 57 -2 68 -2 11 -1
26 -5 33 -9 7 -5 12 -4 12 2 0 5 10 11 22 13 12 2 23 8 25 15 3 7 -4 9 -18 6
-15 -4 -26 0 -35 12 -11 15 -14 15 -14 4 0 -8 5 -20 12 -27 17 -17 3 -15 -31
6 -29 18 -29 18 -9 31 11 7 17 15 14 18 -3 3 -12 0 -20 -6 -20 -17 -112 -10
-108 8 2 8 -3 11 -10 8 -49 -20 -51 -20 -45 -6 3 8 11 31 18 52 18 54 101 110
150 101 57 -11 61 -20 29 -71 -16 -25 -27 -50 -23 -56 3 -6 15 8 25 31 11 22
26 43 34 46 22 9 54 -12 54 -34 0 -21 -28 -54 -51 -62 -7 -2 -9 -9 -5 -17 6
-9 10 -9 19 2 11 13 14 13 29 -2 15 -15 16 -20 4 -43 -12 -23 -12 -26 0 -21 8
3 14 9 14 14 0 5 10 13 23 18 19 7 23 5 28 -23 3 -19 0 -40 -9 -55 -8 -13 -9
-21 -4 -17 20 12 22 -13 6 -53 -9 -23 -20 -41 -25 -41 -19 0 -79 46 -79 60 1
21 25 51 52 64 13 6 24 20 25 31 2 11 0 14 -3 7 -14 -30 -66 -44 -173 -44 -93
-1 -106 1 -105 15 2 20 -12 22 -23 3 -5 -8 -35 -15 -76 -19 -64 -6 -68 -5 -77
16 -8 21 -11 19 -14 -12 0 -8 -22 -20 -48 -28 -26 -7 -50 -18 -53 -23 -3 -6
-15 -10 -26 -10 -17 0 -18 -3 -7 -20 11 -16 14 -17 21 -5 13 24 66 46 136 57
63 10 360 12 370 3 2 -3 -8 -23 -23 -45 -28 -43 -76 -74 -83 -53 -3 8 -12 7
-31 -2 -33 -17 -268 -49 -284 -39 -7 4 -8 3 -4 -4 10 -17 -27 -15 -69 3 -20 8
-38 22 -42 32 -4 10 -13 24 -20 32 -16 16 -9 47 18 77 11 11 16 24 12 29 -5 4
-2 5 5 1 7 -5 21 -2 30 7 9 7 38 23 64 33 27 10 48 23 48 28 0 5 7 17 15 26
23 25 64 111 52 107 -6 -2 -21 -24 -34 -48 -28 -58 -59 -87 -75 -71 -8 8 -7
22 6 54 10 24 22 54 27 66 5 13 17 26 27 29 10 2 22 20 28 39 9 28 9 32 -2 23
-7 -6 -16 -19 -19 -29 -3 -10 -16 -25 -30 -34 -22 -14 -27 -14 -70 10 -37 19
-50 22 -61 13 -22 -18 -16 -31 7 -17 17 11 22 10 32 -3 7 -9 21 -18 32 -20 24
-5 33 -53 14 -75 -7 -8 -12 -30 -11 -49 1 -28 -2 -35 -17 -35 -25 0 -49 30
-57 69 -4 21 -10 29 -16 23 -13 -13 -2 -46 29 -82 31 -37 23 -50 -16 -27 -16
9 -42 17 -58 16 -26 -1 -25 -2 10 -11 39 -10 48 -24 22 -34 -27 -11 -62 5 -74
34 -6 15 -22 32 -34 37 -18 8 -22 18 -21 49 2 45 26 70 58 60 30 -9 30 -11 12
-39 -16 -24 -15 -26 1 -44 22 -23 63 -44 70 -37 3 3 -8 13 -26 23 -33 19 -37
33 -21 64 7 13 21 19 45 19 29 0 35 -4 45 -35 18 -54 29 -42 12 13 l-15 48
-43 -6 c-24 -4 -45 -5 -45 -3 -1 1 -2 7 -3 12 -2 15 -16 26 -16 13 0 -7 -7
-12 -15 -12 -23 0 -18 16 16 44 17 14 26 26 21 26 -14 0 -62 -40 -62 -51 0
-12 -55 -69 -65 -69 -4 0 -5 9 -2 21 4 16 3 18 -9 8 -8 -6 -14 -20 -14 -30 0
-11 -4 -19 -10 -19 -30 0 4 58 38 65 29 5 42 14 42 27 0 16 41 58 55 58 7 0
25 11 41 25 16 14 38 25 49 25 11 0 29 7 39 15 22 16 72 20 80 6 3 -5 -2 -11
-12 -14 -9 -4 -42 -15 -72 -26 -47 -17 -50 -20 -25 -21 17 0 48 9 69 21 21 11
48 18 59 15 11 -3 29 0 39 5 29 16 58 2 58 -29 0 -29 16 -20 22 13 2 10 14 22
28 26 21 6 22 7 5 9 -11 1 -24 1 -30 0 -30 -7 -123 -5 -119 2 3 4 24 8 47 8
31 0 38 3 27 10 -23 15 44 12 113 -5z m-474 -120 c-12 -19 -28 -35 -37 -35
-11 0 -6 10 18 35 19 19 35 35 37 35 1 0 -7 -16 -18 -35z m735 -47 c18 -26 20
-38 6 -38 -5 0 -10 7 -10 15 0 8 -13 23 -30 34 -16 10 -27 21 -24 24 9 9 41
-10 58 -35z m58 -111 c9 -30 9 -40 -2 -50 -10 -10 -11 -7 -6 16 4 19 3 26 -4
22 -6 -4 -10 11 -9 42 1 26 3 39 5 28 3 -11 10 -37 16 -58z m-42 44 c23 -44
-2 -70 -36 -37 -17 18 -18 28 -2 44 17 17 26 15 38 -7z m-785 -10 c-7 -13 15
-61 29 -61 6 0 22 -14 36 -31 14 -17 41 -35 60 -40 l35 -9 -40 5 -40 4 25 -19
c35 -27 21 -33 -26 -10 -40 20 -135 39 -122 25 4 -4 30 -11 57 -16 46 -7 107
-36 97 -46 -2 -2 -19 2 -38 10 -19 8 -54 18 -76 22 -48 8 -53 13 -45 43 5 20
7 21 34 7 15 -8 45 -15 65 -15 31 0 35 2 25 14 -7 8 -26 18 -43 21 -21 5 -34
16 -44 41 -18 43 -18 64 2 64 8 0 13 -4 9 -9z m-41 -23 c-4 -6 -10 -25 -14
-42 -5 -23 -9 -27 -14 -15 -8 19 9 69 24 69 6 0 8 -5 4 -12z m33 -60 c8 -9 26
-19 40 -23 14 -3 23 -8 20 -11 -8 -9 -74 15 -87 31 -7 9 -9 23 -4 37 7 22 8
22 12 3 2 -11 11 -27 19 -37z m854 -112 c-6 -12 -13 -35 -14 -53 -6 -53 -31
-82 -70 -78 -49 5 -120 26 -137 42 -17 15 0 18 28 4 95 -48 107 -44 154 48 23
45 39 90 40 115 2 39 2 39 5 -8 3 -28 -1 -59 -6 -70z m-120 -52 c6 -8 18 -14
25 -14 8 0 14 -9 14 -20 0 -24 -41 -28 -60 -6 -6 8 -17 13 -23 11 -7 -3 -19
-1 -27 4 -12 8 -12 13 3 29 19 21 48 19 68 -4z"/>
<path d="M1499 1765 c-26 -13 -49 -31 -52 -39 -9 -22 6 -20 28 4 10 11 28 20
39 20 12 0 27 9 34 20 15 25 9 24 -49 -5z"/>
<path d="M1316 1505 c7 -16 -30 -26 -70 -18 -18 3 -28 2 -23 -3 5 -5 77 -10
160 -11 139 -1 153 0 176 19 l26 21 -25 -7 c-54 -16 -120 -19 -135 -6 -10 9
-15 9 -15 1 0 -15 -40 -14 -72 3 -20 11 -26 11 -22 1z"/>
<path d="M1195 1463 c-29 -6 -85 -36 -85 -45 0 -12 8 -10 36 8 21 14 31 15 63
5 48 -14 96 -13 141 3 32 12 27 12 -49 8 -75 -4 -84 -3 -78 12 4 9 3 15 -1 15
-4 -1 -16 -3 -27 -6z"/>
</g>
</svg>
